<svg width="164" height="32" viewBox="0 0 164 32" fill="none" xmlns="http://www.w3.org/2000/svg">
<path fill-rule="evenodd" clip-rule="evenodd" d="M29.1533 6.88748C30.9482 9.47358 32.0002 12.6138 32.0002 16.0001C32.0002 19.3864 30.9482 22.5269 29.1533 25.1127L25.0088 20.9681C25.8227 19.4955 26.286 17.8017 26.286 16.0001C26.286 14.1985 25.8227 12.505 25.0088 11.0323L29.1533 6.88748Z" fill="#8FC7FF"/>
<path fill-rule="evenodd" clip-rule="evenodd" d="M25.1126 2.84691L20.9678 6.99144C19.4951 6.17751 17.8016 5.71423 16 5.71423C10.3194 5.71423 5.71418 10.3195 5.71418 16.0001C5.71418 21.6806 10.3194 26.2859 16 26.2859C17.8016 26.2859 19.4951 25.8226 20.9678 25.0087L25.1126 29.1532C22.5265 30.9481 19.3863 32.0001 16 32.0001C7.16352 32.0001 0 24.8365 0 16.0001C0 7.16357 7.16352 6.10352e-05 16 6.10352e-05C19.3863 6.10352e-05 22.5265 1.05203 25.1126 2.84691Z" fill="#297EFF"/>
<path d="M108.954 7H107.34C107.274 7 107.241 7.03423 107.241 7.1027V21.4126C107.241 21.4811 107.274 21.5153 107.34 21.5153H108.954C109.02 21.5153 109.053 21.4811 109.053 21.4126V7.1027C109.02 7.03423 108.987 7 108.954 7Z" fill="#0C2D66"/>
<path d="M138.371 11.4505H140.183C140.216 11.4505 140.282 11.5189 140.282 11.5532V13.2306C140.282 13.2991 140.249 13.3333 140.183 13.3333H138.371C138.338 13.3333 138.305 13.3676 138.305 13.4018V21.4126C138.305 21.4811 138.272 21.5153 138.206 21.5153H136.592C136.526 21.5153 136.493 21.4811 136.493 21.4126V13.4018C136.493 13.3676 136.46 13.3333 136.428 13.3333H134.649C134.583 13.3333 134.55 13.2991 134.55 13.2306V11.5532C134.55 11.4847 134.583 11.4505 134.649 11.4505H136.428C136.46 11.4505 136.493 11.4162 136.493 11.382V7.1027C136.493 7.03423 136.526 7 136.592 7H138.206C138.272 7 138.305 7.03423 138.305 7.1027V11.382C138.305 11.4162 138.338 11.4505 138.371 11.4505Z" fill="#0C2D66"/>
<path d="M141.896 8.23248H143.51C143.576 8.23248 143.609 8.26672 143.609 8.33519V10.0127C143.609 10.0811 143.576 10.1154 143.51 10.1154H141.896C141.83 10.1154 141.797 10.0811 141.797 10.0127V8.33519C141.797 8.26672 141.83 8.23248 141.896 8.23248Z" fill="#0C2D66"/>
<path d="M141.896 11.4505H143.51C143.576 11.4505 143.609 11.519 143.609 11.5532V21.4127C143.609 21.4811 143.576 21.5154 143.51 21.5154H141.896C141.83 21.5154 141.797 21.4811 141.797 21.4127V11.5532C141.797 11.4847 141.83 11.4505 141.896 11.4505Z" fill="#0C2D66"/>
<path fill-rule="evenodd" clip-rule="evenodd" d="M159.125 19.8037C158.169 19.8037 157.346 19.3928 156.753 18.7082C156.72 18.6397 156.72 18.5712 156.786 18.537L162.32 16.1064L163.934 15.3874C164 15.3532 164 15.319 164 15.2847C163.473 12.9226 161.398 11.1766 158.96 11.2793C156.39 11.382 154.249 13.5388 154.15 16.2091C154.019 19.1874 156.292 21.6523 159.157 21.6523C161.233 21.6523 163.012 20.3172 163.769 18.4343C163.802 18.3658 163.769 18.2973 163.703 18.2973L162.089 17.9892C162.056 17.9892 161.991 17.9892 161.991 18.0577C161.398 19.0847 160.343 19.8037 159.125 19.8037ZM159.125 13.1623C160.08 13.1623 160.936 13.6073 161.496 14.292C161.529 14.3605 161.529 14.4289 161.463 14.4632C161.463 14.4632 156.127 16.8253 156.061 16.8595C155.995 16.8938 155.929 16.8253 155.929 16.7911V16.5172C155.896 14.6343 157.346 13.1623 159.125 13.1623Z" fill="#0C2D66"/>
<path d="M152.339 11.4505H153.92C153.986 11.4505 154.019 11.519 153.953 11.5874L150.691 21.4469C150.658 21.4811 150.626 21.5154 150.593 21.5154H148.353C148.287 21.5154 148.254 21.4811 148.254 21.4469L144.992 11.5874C144.992 11.519 145.025 11.4505 145.091 11.4505H146.672C146.738 11.4505 146.771 11.4847 146.771 11.519L149.341 19.3586C149.407 19.5298 149.604 19.5298 149.67 19.3586L152.24 11.519C152.273 11.4847 152.306 11.4505 152.339 11.4505Z" fill="#0C2D66"/>
<path d="M129.609 19.8036C127.632 19.8036 126.084 17.9549 126.446 15.8324C126.644 14.6685 127.764 13.4703 128.884 13.2306C130.103 12.9567 131.256 13.4018 131.98 14.2576C132.013 14.2919 132.079 14.2919 132.112 14.2576L133.265 13.0594C133.298 13.0252 133.298 12.9567 133.265 12.9225C132.31 11.827 130.893 11.1766 129.345 11.245C126.808 11.382 124.7 13.5387 124.568 16.1748C124.437 19.1531 126.71 21.618 129.576 21.618C131.025 21.618 132.343 20.9676 133.265 19.9405C133.298 19.9063 133.298 19.8721 133.265 19.8378L132.112 18.6396C132.079 18.6054 132.013 18.6054 131.98 18.6396C131.42 19.3928 130.564 19.8036 129.609 19.8036Z" fill="#0C2D66"/>
<path fill-rule="evenodd" clip-rule="evenodd" d="M118.836 19.8036C117.881 19.8036 117.058 19.3928 116.465 18.7081C116.432 18.6396 116.432 18.5712 116.498 18.5369L122.032 16.1063L123.646 15.3874C123.712 15.3531 123.712 15.3189 123.712 15.2847C123.185 12.9225 121.109 11.1766 118.672 11.2793C116.102 11.382 113.961 13.5387 113.862 16.209C113.73 19.1874 116.003 21.6522 118.869 21.6522C120.945 21.6522 122.724 20.3171 123.481 18.4342C123.514 18.3658 123.481 18.2973 123.415 18.2973L121.801 17.9892C121.768 17.9892 121.702 17.9892 121.702 18.0576C121.109 19.0847 120.022 19.8036 118.836 19.8036ZM118.836 13.1622C119.792 13.1622 120.648 13.6072 121.208 14.2919C121.241 14.3604 121.241 14.4288 121.175 14.4631C121.175 14.4631 115.839 16.8252 115.773 16.8595C115.707 16.8937 115.641 16.8252 115.641 16.791V16.5171C115.608 14.6342 117.058 13.1622 118.836 13.1622Z" fill="#0C2D66"/>
<path d="M110.864 7H112.479C112.512 7 112.577 7.03423 112.577 7.1027V21.4126C112.577 21.4811 112.545 21.5153 112.479 21.5153H110.864C110.799 21.5153 110.766 21.4811 110.766 21.4126V7.1027C110.766 7.03423 110.799 7 110.864 7Z" fill="#0C2D66"/>
<path fill-rule="evenodd" clip-rule="evenodd" d="M96.0405 16.4829C96.0405 13.6072 98.2806 11.2793 101.048 11.2793C103.815 11.2793 106.055 13.6072 106.055 16.4829C106.055 19.3586 103.815 21.6865 101.048 21.6865C98.2806 21.6865 96.0405 19.3586 96.0405 16.4829ZM104.243 16.4829C104.243 14.6685 102.827 13.1622 101.048 13.1622C99.2688 13.1622 97.8523 14.6685 97.8523 16.4829C97.8523 18.2973 99.3018 19.8036 101.048 19.8036C102.794 19.8036 104.243 18.2973 104.243 16.4829Z" fill="#0C2D66"/>
<path d="M88.6944 15.8324C88.3321 17.9549 89.8803 19.8036 91.8569 19.8036C92.8122 19.8036 93.6687 19.3928 94.2287 18.6396C94.2616 18.6054 94.3275 18.6054 94.3605 18.6396L95.5134 19.8378C95.5464 19.8721 95.5464 19.9063 95.5134 19.9405C94.5911 20.9676 93.2734 21.618 91.8239 21.618C88.958 21.618 86.685 19.1531 86.8167 16.1748C86.9485 13.5387 89.0568 11.382 91.5933 11.245C93.1416 11.1766 94.5581 11.827 95.5134 12.9225C95.5464 12.9567 95.5464 13.0252 95.5134 13.0594L94.3605 14.2576C94.3275 14.2919 94.2616 14.2919 94.2287 14.2576C93.504 13.4018 92.351 12.9567 91.1321 13.2306C90.0121 13.4703 88.8921 14.6685 88.6944 15.8324Z" fill="#0C2D66"/>
<path d="M77.4222 11.2793C76.368 11.2793 75.1492 11.964 74.5892 12.7856C74.5562 12.8541 74.4245 12.8198 74.4245 12.7514V11.5532C74.4245 11.5189 74.3915 11.4505 74.3256 11.4505H72.7115C72.6785 11.4505 72.6126 11.4847 72.6126 11.5532V21.4469C72.6126 21.4811 72.6456 21.5496 72.7115 21.5496H74.3256C74.3586 21.5496 74.4245 21.5153 74.4245 21.4469V16.5171C74.4245 14.6343 75.6433 13.2991 77.3892 13.2991C79.6952 13.2991 80.387 14.8739 80.387 16.7225V21.4469C80.387 21.4811 80.4199 21.5496 80.4858 21.5496H82.1C82.1329 21.5496 82.1988 21.5153 82.1988 21.4469V16.7225C82.2317 13.8469 80.914 11.2793 77.4222 11.2793Z" fill="#0C2D66"/>
<path fill-rule="evenodd" clip-rule="evenodd" d="M66.7819 19.8036C65.8266 19.8036 65.003 19.3928 64.4101 18.7081C64.3771 18.6396 64.3771 18.5712 64.443 18.5369L69.9773 16.1063L71.5914 15.3874C71.6573 15.3531 71.6573 15.3189 71.6573 15.2847C71.1302 12.9225 69.0549 11.1766 66.6172 11.2793C64.0477 11.382 61.9065 13.5387 61.8076 16.209C61.6759 19.1874 63.9489 21.6522 66.8148 21.6522C68.8902 21.6522 70.669 20.3171 71.4267 18.4342C71.4597 18.3658 71.4267 18.2973 71.3608 18.2973L69.7467 17.9892C69.7137 17.9892 69.6478 17.9892 69.6478 18.0576C69.0549 19.0847 68.0007 19.8036 66.7819 19.8036ZM66.7819 13.1622C67.7372 13.1622 68.5937 13.6072 69.1537 14.2919C69.1867 14.3604 69.1867 14.4288 69.1208 14.4631C69.1208 14.4631 63.7842 16.8252 63.7183 16.8595C63.6524 16.8937 63.5865 16.8252 63.5865 16.791V16.5171C63.5865 14.6342 65.036 13.1622 66.7819 13.1622Z" fill="#0C2D66"/>
<path fill-rule="evenodd" clip-rule="evenodd" d="M52.9133 12.5802C53.6051 11.7243 54.5933 11.2108 55.8451 11.1766C58.2499 11.1423 60.4241 12.9225 60.8194 15.4216C61.4123 18.7081 58.9746 21.5838 55.911 21.5838C54.5933 21.5838 53.5721 21.036 52.8803 20.1802C52.8145 20.1117 52.7156 20.1459 52.7156 20.2486V25.8973C52.7156 25.9658 52.6827 26 52.6168 26H51.0356C50.9697 26 50.9368 25.9658 50.9368 25.8973V11.5531C50.9368 11.4847 50.9697 11.4504 51.0356 11.4504H52.6498C52.7156 11.4504 52.7486 11.4847 52.7486 11.5531V12.5117C52.7486 12.6144 52.8474 12.6486 52.9133 12.5802ZM52.7815 15.8324C52.4192 18.0919 54.2969 20.0432 56.471 19.6666C57.7887 19.427 58.8758 18.3315 59.0735 16.9621C59.4358 14.7027 57.5581 12.7513 55.3839 13.1279C54.0663 13.3333 53.0121 14.463 52.7815 15.8324Z" fill="#0C2D66"/>
<path fill-rule="evenodd" clip-rule="evenodd" d="M45.0072 11.2793C42.2401 11.2793 40 13.6072 40 16.4829C40 19.3586 42.2401 21.6865 45.0072 21.6865C47.7743 21.6865 50.0144 19.3586 50.0144 16.4829C50.0144 13.6072 47.7743 11.2793 45.0072 11.2793ZM45.0072 13.1622C46.7861 13.1622 48.2026 14.6685 48.2026 16.4829C48.2026 18.2973 46.7531 19.8036 45.0072 19.8036C43.2613 19.8036 41.8118 18.2973 41.8118 16.4829C41.8118 14.6685 43.2613 13.1622 45.0072 13.1622Z" fill="#0C2D66"/>
</svg>
