<svg width="139" height="44" viewBox="0 0 139 44" fill="none" xmlns="http://www.w3.org/2000/svg">
<g clip-path="url(#clip0_18170_238690)">
<path d="M23.349 11.7254C17.5575 11.7254 12.8467 16.342 12.8467 22.0177C12.8467 27.6934 17.5575 32.3101 23.349 32.3101C29.1405 32.3101 33.8513 27.6934 33.8513 22.0177C33.8513 16.342 29.1405 11.7254 23.349 11.7254ZM23.349 29.6964C19.0304 29.6964 15.5137 26.2542 15.5137 22.0177C15.5137 17.7812 19.0304 14.339 23.349 14.339C27.6675 14.339 31.1843 17.7855 31.1843 22.0177C31.1843 26.25 27.6675 29.6964 23.349 29.6964Z" fill="#242F67"/>
<path d="M23.3476 5.82771C14.2398 5.82771 6.82715 13.0921 6.82715 22.0179C6.82715 30.9436 14.2354 38.208 23.3476 38.208C32.4597 38.208 39.868 30.9436 39.868 22.0179C39.868 13.0921 32.4553 5.82771 23.3476 5.82771ZM23.3476 35.5944C15.7083 35.5944 9.49412 29.5044 9.49412 22.0179C9.49412 14.5314 15.7083 8.44136 23.3476 8.44136C30.9868 8.44136 37.201 14.5314 37.201 22.0179C37.201 29.5044 30.9868 35.5944 23.3476 35.5944Z" fill="#242F67"/>
<path d="M23.3485 -0.0531158C10.9113 -0.0531158 0.796875 9.85913 0.796875 22.0434C0.796875 34.2276 10.9113 44.1442 23.3485 44.1442C35.7856 44.1442 45.9001 34.2319 45.9001 22.0434C45.9001 9.85486 35.7813 -0.0531158 23.3485 -0.0531158ZM23.3485 41.5305C12.3843 41.5305 3.46385 32.7884 3.46385 22.0434C3.46385 11.2984 12.3843 2.55627 23.3485 2.55627C34.3127 2.55627 43.2331 11.2984 43.2331 22.0434C43.2331 32.7884 34.3127 41.5305 23.3485 41.5305Z" fill="#242F67"/>
<path d="M73.3368 11.7383C70.648 11.7383 67.9593 12.7419 65.9111 14.7491C61.8148 18.7636 61.8148 25.2892 65.9111 29.3036C67.8939 31.2468 70.5304 32.3187 73.3368 32.3187C76.1432 32.3187 78.7797 31.2468 80.7625 29.3036C81.2854 28.7911 81.2811 27.9669 80.7625 27.4544C80.2396 26.9419 79.3985 26.9419 78.8756 27.4544C77.3939 28.9065 75.4285 29.7051 73.3368 29.7051C71.2451 29.7051 69.2753 28.9065 67.798 27.4544C64.7432 24.4607 64.7432 19.5878 67.798 16.5941C70.8529 13.6003 75.8251 13.6003 78.8799 16.5941C79.3985 17.1066 80.2439 17.1066 80.7668 16.5941C81.2898 16.0859 81.2898 15.2574 80.7668 14.7449C78.7143 12.7419 76.0256 11.7383 73.3368 11.7383Z" fill="#242F67"/>
<path d="M73.3371 5.84473C69.1057 5.84473 64.8743 7.42488 61.6539 10.5809C55.213 16.893 55.213 27.164 61.6539 33.476C68.0947 39.7881 78.5752 39.7881 85.016 33.476C85.5389 32.9678 85.5389 32.1393 85.016 31.6268C84.4974 31.1143 83.652 31.1143 83.1291 31.6268C77.7298 36.9182 68.9401 36.9225 63.5364 31.6268C58.1371 26.3312 58.1371 17.7215 63.5364 12.4258C68.9357 7.13448 77.7254 7.13448 83.1291 12.4258C83.6477 12.9383 84.4931 12.9383 85.016 12.4258C85.5389 11.9176 85.5389 11.0891 85.016 10.5766C81.7956 7.42061 77.5642 5.84473 73.3371 5.84473Z" fill="#242F67"/>
<path d="M73.3542 -0.0445175C67.5801 -0.0445175 61.806 2.10791 57.409 6.41703C48.615 15.0353 48.615 29.0559 57.409 37.6699C66.203 46.2881 80.5097 46.2881 89.2994 37.6699C89.8223 37.1617 89.8223 36.3331 89.2994 35.8207C88.7808 35.3082 87.9354 35.3082 87.4124 35.8207C79.6599 43.4182 67.0441 43.4182 59.2916 35.8207C51.539 28.2231 51.539 15.8595 59.2916 8.26196C67.0441 0.664417 79.6599 0.664417 87.4124 8.26196C87.931 8.77444 88.7764 8.77444 89.2994 8.26196C89.8223 7.75375 89.8223 6.92524 89.2994 6.41275C84.9023 2.10791 79.1283 -0.0445175 73.3542 -0.0445175Z" fill="#242F67"/>
<path d="M115.63 32.3409C109.839 32.3409 105.128 27.7354 105.128 22.0733C105.128 16.4112 109.839 11.8057 115.63 11.8057C121.422 11.8057 126.133 16.4112 126.133 22.0733C126.133 22.7933 125.535 23.377 124.799 23.377H115.63C114.894 23.377 114.297 22.7933 114.297 22.0733C114.297 21.3533 114.894 20.7696 115.63 20.7696H123.352C122.716 17.1653 119.496 14.413 115.63 14.413C111.312 14.413 107.795 17.8469 107.795 22.0733C107.795 26.2996 111.312 29.7335 115.63 29.7335C118.206 29.7335 120.62 28.4937 122.084 26.4189C122.502 25.8267 123.335 25.6776 123.941 26.0866C124.546 26.4956 124.699 27.3051 124.28 27.9015C122.315 30.6793 119.082 32.3409 115.63 32.3409Z" fill="#242F67"/>
<path d="M115.629 38.2243C106.521 38.2243 99.1084 30.9774 99.1084 22.0731C99.1084 13.1688 106.521 5.92188 115.629 5.92188C124.737 5.92188 132.149 13.1688 132.149 22.0731C132.149 22.7931 131.552 23.3768 130.816 23.3768C130.079 23.3768 129.482 22.7931 129.482 22.0731C129.482 14.6046 123.268 8.52925 115.629 8.52925C107.99 8.52925 101.775 14.6046 101.775 22.0731C101.775 29.5416 107.99 35.617 115.629 35.617C120.183 35.617 124.449 33.4271 127.038 29.7546C127.456 29.1624 128.288 29.0133 128.894 29.4223C129.5 29.8313 129.652 30.6408 129.234 31.2373C126.149 35.6127 121.059 38.2243 115.629 38.2243Z" fill="#242F67"/>
<path d="M115.63 44.091C103.197 44.091 93.0781 34.2026 93.0781 22.0434C93.0781 9.88417 103.197 0 115.63 0C128.063 0 138.181 9.88843 138.181 22.0477C138.181 22.7677 137.584 23.3513 136.848 23.3513C136.111 23.3513 135.514 22.7677 135.514 22.0477C135.514 11.3284 126.594 2.60737 115.63 2.60737C104.666 2.60737 95.7451 11.3284 95.7451 22.0477C95.7451 32.7669 104.666 41.4879 115.63 41.4879C122.166 41.4879 128.289 38.3437 132.006 33.0779C132.425 32.4857 133.257 32.3366 133.863 32.7456C134.468 33.1546 134.621 33.964 134.203 34.5605C129.984 40.5251 123.042 44.091 115.63 44.091Z" fill="#242F67"/>
</g>
<defs>
<clipPath id="clip0_18170_238690">
<rect width="137.384" height="44.1973" fill="white" transform="matrix(1 0 0 -1 0.796875 44.1442)"/>
</clipPath>
</defs>
</svg>
