<svg width="114" height="44" viewBox="0 0 114 44" fill="none" xmlns="http://www.w3.org/2000/svg">
<path d="M22.0347 29.2322C26.0352 29.2322 29.2783 25.9942 29.2783 22C29.2783 18.0057 26.0352 14.7677 22.0347 14.7677C18.0341 14.7677 14.791 18.0057 14.791 22C14.791 25.9942 18.0341 29.2322 22.0347 29.2322Z" fill="#88C8C3"/>
<path d="M22.0346 0C9.87078 0 0 9.85527 0 22C0 34.1447 9.87078 44 22.0346 44C34.1985 44 44.0693 34.1447 44.0693 22C44.0693 9.85527 34.2137 0 22.0346 0ZM22.0346 36.4948C14.0165 36.4948 7.51698 30.0055 7.51698 22C7.51698 13.9945 14.0165 7.50517 22.0346 7.50517C30.0527 7.50517 36.5523 13.9945 36.5523 22C36.5675 30.0055 30.0527 36.4948 22.0346 36.4948Z" fill="#0C5559"/>
<path d="M76.5517 35.0544C74.6383 35.9793 72.4971 36.4948 70.2192 36.4948C62.2011 36.4948 55.7016 30.0055 55.7016 22C55.7016 13.9945 62.2011 7.50517 70.2192 7.50517C72.5274 7.50517 74.7142 8.051 76.658 9.0062L82.1553 3.50241C78.7081 1.28877 74.6231 0 70.2192 0C58.0554 0 48.1846 9.85527 48.1846 22C48.1846 34.1447 58.0554 44 70.2192 44C74.4712 44 78.4347 42.8022 81.7908 40.725L76.5517 35.0544Z" fill="#0C5559"/>
<path d="M114 0H96.2934H91.4795H89.0498V44H96.2934V7.23225H114V0Z" fill="#0C5559"/>
<path d="M99.5596 18.3777V25.61H106.803V18.3777H99.5596Z" fill="#88C8C3"/>
</svg>
