<svg width="110" height="46" viewBox="0 0 110 46" fill="none" xmlns="http://www.w3.org/2000/svg">
<path d="M22.2071 45.1833C10.0631 45.1833 0.193359 35.2375 0.193359 23C0.193359 10.7625 10.0631 0.81665 22.2071 0.81665C34.351 0.81665 44.2208 10.7625 44.2208 23C44.2208 35.2375 34.351 45.1833 22.2071 45.1833ZM22.2071 11.4958C15.9304 11.4958 10.7909 16.6292 10.7909 23C10.7909 29.3708 15.9304 34.4583 22.2071 34.4583C28.4837 34.4583 33.6233 29.325 33.6233 23C33.6233 16.675 28.4837 11.4958 22.2071 11.4958Z" fill="#4B3084"/>
<path d="M109.625 45.1833C97.4811 45.1833 87.6113 35.2375 87.6113 23C87.6113 10.7625 97.4811 0.81665 109.625 0.81665V11.5417C103.348 11.5417 98.2088 16.675 98.2088 23.0458C98.2088 29.4167 103.348 34.4583 109.625 34.4583V45.1833Z" fill="#4B3084"/>
<path d="M54.8172 22.725H44.2197C44.2197 10.4875 54.0895 0.541626 66.2334 0.541626V11.2666C59.9568 11.2666 54.8172 16.4 54.8172 22.725Z" fill="#4B3084"/>
<path d="M65.7344 45.2292V34.5501C72.011 34.5501 77.1506 29.4167 77.1506 23.0459H87.7936C87.7481 35.2834 77.8783 45.2292 65.7344 45.2292Z" fill="#4B3084"/>
</svg>
